<svg width="42" height="45" viewBox="0 0 42 45" fill="none" xmlns="http://www.w3.org/2000/svg">
<path d="M35.0263 25.7143C35.0263 17.43 28.2635 10.7143 19.9211 10.7142C11.5786 10.7142 4.81575 17.43 4.81575 25.7143C4.81576 33.9986 11.5786 40.7143 19.9211 40.7143C28.2635 40.7143 35.0263 33.9986 35.0263 25.7143ZM17.7631 25.7143V17.1428C17.7631 15.9594 18.7293 15 19.9211 15C21.1128 15 22.0789 15.9594 22.0789 17.1428V25.7143C22.0789 26.8977 21.1128 27.8571 19.9211 27.8571C18.7293 27.8571 17.7631 26.8977 17.7631 25.7143ZM33.5004 4.91334C34.33 4.08957 35.6669 4.0767 36.5123 4.87473L36.5522 4.91334L40.868 9.19901L40.9069 9.23862C41.7105 10.0781 41.6975 11.4057 40.868 12.2295C40.0384 13.0532 38.7015 13.0661 37.8561 12.2681L37.8162 12.2295L33.5004 7.94381L33.4616 7.90419C32.6579 7.06469 32.6709 5.7371 33.5004 4.91334ZM24.2368 0L24.2925 0.000690569C25.4585 0.0300161 26.3947 0.977854 26.3947 2.14284C26.3947 3.30782 25.4585 4.25566 24.2925 4.28498L24.2368 4.28567H15.6052C14.4135 4.28567 13.4474 3.3263 13.4474 2.14284C13.4474 0.959369 14.4135 0 15.6052 0H24.2368ZM39.3421 25.7143C39.3421 36.3655 30.647 45 19.9211 45C9.19511 45 0.500012 36.3655 0.5 25.7143C0.5 15.0631 9.1951 6.42857 19.9211 6.42857C30.6471 6.42858 39.3421 15.0631 39.3421 25.7143Z" fill="black"/>
</svg>
