<svg width="50" height="50" viewBox="0 0 50 50" fill="none" xmlns="http://www.w3.org/2000/svg">
<path d="M41.4999 40.9999C41.2611 40.403 40.358 39.0173 39.9999 38.4999C38.1692 35.7938 35.1791 34.3407 31.9954 33.903C31.5975 33.8632 31.1597 33.9427 30.8413 34.1815C29.1699 35.4152 27.1801 36.0519 25.1107 36.0519C23.0412 36.0519 21.0515 35.4152 19.38 34.1815C19.0616 33.9427 18.6239 33.8234 18.226 33.903C15.0423 34.3407 11.9769 35.7938 10.1861 38.4999C9.6813 39.1134 8.73854 40.4428 8.49981 40.9999C8.38045 41.2387 8.42021 41.5173 8.53958 41.7561C8.85797 42.3132 9.82794 42.4394 10.1861 42.9169C10.7432 43.6731 11.7392 44.2898 12.4158 44.9265C12.9729 45.4836 13.6096 46.001 14.2464 46.5183C17.3903 48.8663 21.1709 48.9999 25.0709 48.9999C28.9709 48.9999 32.7516 48.8663 35.8954 46.5183C36.5321 46.0408 37.1688 45.4836 37.726 44.9265C38.3628 44.2898 39.278 43.673 39.8352 42.9169C40.2331 42.3996 41.3408 42.373 41.6591 41.8159C41.858 41.5771 41.6192 41.2387 41.4999 40.9999Z" fill="black"/>
<path d="M25.1108 33.2266C30.1251 33.2266 34.224 29.1276 34.224 24.1133C34.224 19.099 30.1251 15 25.1108 15C20.0964 15 15.9976 19.099 15.9976 24.1133C15.9976 29.1276 20.0965 33.2266 25.1108 33.2266Z" fill="black"/>
<circle cx="25" cy="25" r="24" stroke="#8B8B8B" stroke-width="2"/>
</svg>
