<svg width="39" height="54" viewBox="0 0 39 54" fill="none" xmlns="http://www.w3.org/2000/svg">
<path d="M24.9799 22.3596L24.4017 22.8324C24.0096 23.1522 23.6018 23.483 23.1885 23.8248C24.29 26.8422 26.1501 29.013 26.6156 32.1743C27.093 35.4273 24.9635 38.7994 21.2707 39.4207C18.5877 39.8724 15.5739 38.2624 14.4889 35.3512C14.1875 36.4884 14.0161 37.697 14.0161 38.9854C14.0161 46.5048 19.7935 49.1722 24.7426 49.1722C29.4223 49.1722 33.0454 46.918 36.3332 43.9189C38.1292 40.5596 38.745 36.7651 38.3693 33.3097C37.4255 24.6504 31.44 23.8578 26.8795 14.9758C26.9418 18.2654 26.8135 20.8605 24.9799 22.3587" fill="#F70000"/>
<path d="M25.9971 0.820423C26.1721 0.245887 25.5233 -0.241598 25.0533 0.129514C14.6255 8.37461 0 22.4246 0 36.4655C0 47.8087 9.05238 53.4496 18.9679 53.4496C29.448 53.4496 35.2272 48.0845 37.4869 41.4063C32.0677 53.1032 11.9727 52.5534 11.9727 38.1882C11.9727 29.5408 18.8626 24.304 23.3956 20.5984C26.4992 18.0602 23.2087 9.95619 25.9971 0.82134" fill="#22316F"/>
</svg>
