<svg width="165" height="54" viewBox="0 0 165 54" fill="none" xmlns="http://www.w3.org/2000/svg">
<path d="M24.9799 22.3596L24.4017 22.8324C24.0096 23.1522 23.6018 23.483 23.1885 23.8248C24.29 26.8422 26.1501 29.013 26.6156 32.1743C27.093 35.4273 24.9635 38.7994 21.2707 39.4207C18.5877 39.8724 15.5739 38.2624 14.4889 35.3512C14.1875 36.4884 14.0161 37.697 14.0161 38.9854C14.0161 46.5048 19.7935 49.1722 24.7426 49.1722C29.4223 49.1722 33.0454 46.918 36.3332 43.9189C38.1292 40.5596 38.745 36.7651 38.3693 33.3097C37.4255 24.6504 31.44 23.8578 26.8795 14.9758C26.9418 18.2654 26.8135 20.8605 24.9799 22.3587" fill="#FF4548"/>
<path d="M25.9971 0.820423C26.1721 0.245887 25.5233 -0.241598 25.0533 0.129514C14.6255 8.37461 0 22.4246 0 36.4655C0 47.8087 9.05238 53.4496 18.9679 53.4496C29.448 53.4496 35.2272 48.0845 37.4869 41.4063C32.0677 53.1032 11.9727 52.5534 11.9727 38.1882C11.9727 29.5408 18.8626 24.304 23.3956 20.5984C26.4992 18.0602 23.2087 9.95619 25.9971 0.82134" fill="#0069B4"/>
<path d="M66.0038 26.0148H65.8287L64.6329 28.7262L62.2129 34.0922C61.9985 34.5971 61.7795 34.938 61.5568 35.113C61.3333 35.288 60.9979 35.3751 60.5507 35.3751H58.9471C58.4606 35.3751 58.1261 35.288 57.941 35.113C57.7559 34.938 57.547 34.5981 57.3142 34.0922L55.5063 30.3014L53.6984 26.3649H53.5234V37.1821C53.5234 37.4552 53.4739 37.6201 53.3777 37.6787C53.2806 37.7365 53.1056 37.7658 52.8527 37.7658H49.8783C49.6639 37.7658 49.4998 37.7365 49.3825 37.6787C49.2662 37.6201 49.2075 37.4552 49.2075 37.1821V19.3669C49.2075 18.6283 49.3486 18.1033 49.6309 17.7917C49.9131 17.4811 50.3951 17.3253 51.0768 17.3253H52.7702C53.3154 17.3253 53.7186 17.427 53.9816 17.6314C54.2446 17.8357 54.4929 18.1903 54.7265 18.6961L57.9089 25.8105L59.7196 29.9514H59.836L61.8217 25.4027L64.7997 18.7548C65.0325 18.2297 65.2909 17.8605 65.5731 17.646C65.8553 17.4325 66.308 17.3253 66.9311 17.3253H68.3615C68.9846 17.3253 69.451 17.4564 69.7625 17.7193C70.0741 17.9814 70.2299 18.4826 70.2299 19.2212V37.1821C70.2299 37.4552 70.1804 37.6201 70.0832 37.6787C69.9852 37.7365 69.8083 37.7658 69.5545 37.7658H66.6479C66.4326 37.7658 66.2704 37.7365 66.1632 37.6787C66.056 37.6201 66.0019 37.4552 66.0019 37.1821V26.0148H66.0038Z" fill="#0069B4"/>
<path d="M85.2496 33.5084H78.5724L77.4352 37.2113C77.3766 37.4065 77.2941 37.5467 77.1878 37.6347C77.0806 37.7217 76.8909 37.7657 76.6188 37.7657H73.2073C72.9929 37.7657 72.8618 37.7071 72.8142 37.5907C72.7656 37.4743 72.7601 37.3378 72.7995 37.182L78.8647 18.9004C78.9618 18.5705 79.0736 18.302 79.2001 18.0986C79.3265 17.8943 79.4722 17.7339 79.6372 17.6166C79.8021 17.5002 79.9964 17.4178 80.2199 17.3692C80.4435 17.3206 80.701 17.2959 80.9924 17.2959H82.7417C83.0725 17.2959 83.3538 17.3106 83.5874 17.3399C83.8211 17.3692 84.0245 17.4416 84.1995 17.5589C84.3746 17.6753 84.5248 17.8411 84.6513 18.0546C84.7777 18.2681 84.8987 18.5503 85.016 18.9004L91.0811 37.182C91.1196 37.2993 91.1196 37.4257 91.0811 37.5614C91.0417 37.6979 90.9162 37.7657 90.7027 37.7657H87.2326C87.0182 37.7657 86.8386 37.7419 86.6929 37.6924C86.5472 37.6438 86.4454 37.5128 86.3868 37.2993L85.2496 33.5084ZM79.6216 29.9219H84.1995L83.0917 26.2053L82.0132 22.0205H81.8382L80.7303 26.2053L79.6225 29.9219H79.6216Z" fill="#0069B4"/>
<path d="M102.803 34.062C103.735 34.062 104.562 33.9502 105.281 33.7266C106.001 33.503 106.67 33.2739 107.294 33.0412C107.566 32.9239 107.76 32.9001 107.876 32.9679C107.993 33.0366 108.1 33.1768 108.197 33.3912L109.188 35.4905C109.324 35.7636 109.373 35.967 109.334 36.1036C109.295 36.2401 109.188 36.3565 109.013 36.4536C107.963 37.095 106.86 37.5275 105.704 37.7511C104.547 37.9747 103.405 38.0865 102.278 38.0865C100.683 38.0865 99.3077 37.8482 98.1522 37.3718C96.9958 36.8962 96.0429 36.2108 95.2942 35.3164C94.5456 34.4221 93.9921 33.3298 93.632 32.0369C93.2719 30.744 93.0923 29.2916 93.0923 27.677C93.0923 26.0625 93.3204 24.6348 93.7777 23.3327C94.234 22.0306 94.8709 20.9127 95.6873 19.979C96.5038 19.0462 97.4897 18.3278 98.6471 17.821C99.8035 17.3161 101.082 17.0632 102.482 17.0632C103.473 17.0632 104.445 17.1457 105.398 17.3106C106.35 17.4765 107.283 17.811 108.197 18.3168C108.411 18.4341 108.537 18.5504 108.575 18.6668C108.614 18.7841 108.565 19.0077 108.43 19.3376L107.526 21.3498C107.428 21.6229 107.326 21.7878 107.22 21.8465C107.113 21.9042 106.923 21.8849 106.652 21.7878C105.952 21.5349 105.3 21.3452 104.698 21.2188C104.096 21.0932 103.425 21.0291 102.686 21.0291C101.889 21.0291 101.184 21.1995 100.572 21.5395C99.9602 21.8804 99.4452 22.3458 99.0264 22.9396C98.6076 23.5334 98.2924 24.2326 98.0789 25.0389C97.8645 25.8453 97.7582 26.7259 97.7582 27.677C97.7582 28.6282 97.8407 29.495 98.0056 30.2721C98.1706 31.0491 98.4528 31.7199 98.8514 32.2843C99.25 32.8488 99.7705 33.2859 100.412 33.5965C101.053 33.908 101.851 34.0638 102.803 34.0638V34.062Z" fill="#0069B4"/>
<path d="M145.901 37.6054C145.823 37.7126 145.668 37.7658 145.434 37.7658H136.804C135.715 37.7658 134.825 37.6109 134.135 37.2994C133.445 36.9878 132.896 36.5801 132.488 36.0743C132.079 35.5694 131.798 34.9948 131.642 34.3534C131.486 33.712 131.408 33.0614 131.408 32.3998V22.7188C131.408 22.0197 131.505 21.348 131.7 20.7066C131.894 20.0651 132.2 19.4924 132.618 18.9857C133.036 18.4808 133.584 18.0776 134.265 17.7752C134.945 17.4747 135.782 17.3235 136.772 17.3235H145.141C145.374 17.3235 145.525 17.373 145.593 17.4692C145.661 17.5663 145.695 17.7514 145.695 18.0236V20.5013C145.695 20.7542 145.656 20.9246 145.578 21.0117C145.5 21.0997 145.355 21.1436 145.141 21.1436H137.735C136.977 21.1436 136.471 21.3187 136.218 21.6687C135.965 22.0187 135.839 22.4457 135.839 22.9516V25.1966H144.207C144.44 25.1966 144.59 25.2451 144.659 25.3423C144.727 25.4394 144.761 25.6245 144.761 25.8966V28.1709C144.761 28.4046 144.726 28.575 144.659 28.6813C144.59 28.7886 144.44 28.8417 144.207 28.8417H135.839V32.1661C135.839 32.847 135.999 33.3079 136.32 33.5516C136.64 33.7944 137.111 33.9163 137.734 33.9163H145.432C145.685 33.9163 145.845 33.9594 145.913 34.0473C145.981 34.1344 146.015 34.3241 146.015 34.6164V37.0941C146.015 37.3278 145.976 37.4973 145.898 37.6045L145.901 37.6054Z" fill="#0069B4"/>
<path d="M153.715 37.1537C153.715 37.4258 153.672 37.5963 153.584 37.6641C153.497 37.7319 153.308 37.7658 153.015 37.7658H149.954C149.721 37.7658 149.551 37.7218 149.444 37.6348C149.336 37.5468 149.283 37.3864 149.283 37.1537V19.1048C149.283 18.5605 149.4 18.1271 149.633 17.8064C149.867 17.4857 150.333 17.3253 151.033 17.3253H158.177C159.227 17.3253 160.175 17.4857 161.019 17.8064C161.865 18.1271 162.585 18.5697 163.177 19.1332C163.769 19.6977 164.222 20.3684 164.534 21.1455C164.844 21.9225 165 22.7784 165 23.7112C165 24.2161 164.922 24.8438 164.766 25.5924C164.611 26.341 164.276 27.0695 163.76 27.7788C163.245 28.488 162.497 29.0955 161.515 29.6013C160.533 30.1071 159.226 30.36 157.593 30.36H153.715V37.1537H153.715ZM160.422 24.0026C160.422 23.7304 160.383 23.4335 160.306 23.1128C160.228 22.7921 160.077 22.4916 159.853 22.2084C159.629 21.9271 159.328 21.6934 158.95 21.5093C158.57 21.3242 158.089 21.2316 157.505 21.2316H153.715V26.7717H157.535C158.526 26.7717 159.256 26.5041 159.721 25.969C160.187 25.4348 160.421 24.7787 160.421 24.0008L160.422 24.0026Z" fill="#0069B4"/>
<path d="M126.642 20.6726H122.022V37.2297C122.022 37.4505 121.983 37.5953 121.907 37.6631C121.83 37.7309 121.664 37.7648 121.41 37.7648H118.679C118.475 37.7648 118.325 37.7264 118.233 37.6503C118.139 37.5733 118.092 37.4331 118.092 37.2297V20.6726H113.574C113.251 20.6726 113.089 20.5031 113.089 20.1622V18.807C113.089 18.5862 113.123 18.4414 113.192 18.3736C113.26 18.3058 113.387 18.2719 113.575 18.2719H126.644C126.848 18.2719 126.984 18.3058 127.051 18.3736C127.119 18.4423 127.154 18.5871 127.154 18.807V20.1622C127.154 20.5031 126.984 20.6726 126.644 20.6726H126.642Z" fill="#0069B4"/>
<path d="M121.668 16.6536H118.572V18.073H121.668V16.6536Z" fill="#0069B4"/>
<path d="M123.57 21.7493H116.669L115.756 20.0724H124.485L123.57 21.7493Z" fill="#0069B4"/>
<path d="M120.877 15.3644H119.361C119.317 15.3644 119.281 15.4005 119.281 15.445V17.9924C119.281 18.0369 119.317 18.073 119.361 18.073H120.877C120.922 18.073 120.958 18.0369 120.958 17.9924V15.445C120.958 15.4005 120.922 15.3644 120.877 15.3644Z" fill="#0069B4"/>
<path d="M129.484 17.3638H110.755C110.566 17.3638 110.413 17.5172 110.413 17.7065V20.4399C110.413 20.6291 110.566 20.7826 110.755 20.7826H129.484C129.673 20.7826 129.827 20.6291 129.827 20.4399V17.7065C129.827 17.5172 129.673 17.3638 129.484 17.3638Z" fill="#FF4548"/>
<path d="M55.5458 47.4641C55.5458 48.714 55.2782 49.6725 54.7413 50.3396C54.2052 51.0067 53.408 51.3411 52.3506 51.3411C51.2931 51.3411 50.5133 51.0112 49.991 50.3506C49.4696 49.6899 49.2085 48.7424 49.2085 47.5063C49.2085 46.8887 49.2882 46.3398 49.4477 45.8606C49.608 45.3813 49.827 44.9781 50.1083 44.6519C50.3887 44.3248 50.7232 44.0765 51.1099 43.906C51.4975 43.7356 51.9181 43.6504 52.3716 43.6504C52.8903 43.6504 53.3485 43.7374 53.7461 43.9115C54.1429 44.0856 54.4755 44.3376 54.7413 44.6675C55.0079 44.9974 55.2086 45.3969 55.3433 45.8661C55.478 46.3352 55.5449 46.8676 55.5449 47.4641H55.5458ZM54.5443 47.5063C54.5443 47.1159 54.514 46.7412 54.4545 46.3829C54.394 46.0246 54.284 45.7066 54.1246 45.4299C53.9642 45.1532 53.7471 44.9332 53.4694 44.7692C53.1927 44.6061 52.8371 44.5246 52.4037 44.5246C52.0207 44.5246 51.6908 44.6025 51.4132 44.7582C51.1364 44.9149 50.9083 45.1275 50.7268 45.3978C50.5454 45.6681 50.4107 45.9806 50.3218 46.3352C50.2329 46.6898 50.188 47.0665 50.188 47.4641C50.188 47.9049 50.2238 48.3072 50.2943 48.6728C50.3658 49.0384 50.484 49.3545 50.6517 49.6203C50.8185 49.8869 51.0402 50.094 51.317 50.2434C51.5937 50.3927 51.9419 50.4669 52.3607 50.4669C52.7794 50.4669 53.1185 50.3854 53.3989 50.2223C53.6792 50.0592 53.9047 49.8383 54.0751 49.5616C54.2455 49.2849 54.3665 48.9687 54.437 48.6141C54.5085 48.2595 54.5433 47.8902 54.5433 47.5063H54.5443Z" fill="#0069B4"/>
<path d="M61.6066 48.4226C61.6066 48.8267 61.5553 49.2052 61.4526 49.5571C61.3491 49.9089 61.197 50.2177 60.9945 50.4835C60.7929 50.7492 60.5354 50.959 60.2229 51.1121C59.9105 51.2642 59.5476 51.3411 59.1362 51.3411C58.9373 51.3411 58.7229 51.3301 58.492 51.3091C58.2602 51.2871 58.0146 51.2367 57.7516 51.1579V53.226C57.7516 53.2902 57.7388 53.3305 57.714 53.3488C57.6893 53.3662 57.6481 53.3754 57.5912 53.3754H56.9947C56.9388 53.3754 56.8957 53.3671 56.8673 53.3488C56.8389 53.3305 56.8252 53.2902 56.8252 53.226V46.0897C56.8252 45.998 56.8673 45.9376 56.9526 45.9092C57.3081 45.7525 57.6737 45.648 58.0503 45.5949C58.4269 45.5417 58.7852 45.5151 59.1261 45.5151C59.5513 45.5151 59.9205 45.5875 60.2339 45.7332C60.5464 45.8789 60.803 46.0814 61.0064 46.3407C61.208 46.6001 61.3592 46.907 61.4591 47.2626C61.5589 47.6172 61.6084 48.0048 61.6084 48.4236L61.6066 48.4226ZM60.6371 48.4226C60.6371 48.0341 60.5977 47.7052 60.5198 47.4367C60.441 47.1682 60.3292 46.9529 60.1844 46.7907C60.0387 46.6285 59.8646 46.5103 59.6621 46.436C59.4605 46.3618 59.2315 46.3243 58.9758 46.3243C58.7916 46.3243 58.5818 46.3417 58.3472 46.3774C58.1135 46.4122 57.9138 46.4617 57.7507 46.5258V50.3405C58.0201 50.4184 58.2528 50.4697 58.448 50.4944C58.6432 50.5192 58.8228 50.532 58.985 50.532C59.2269 50.532 59.4486 50.4944 59.6502 50.4202C59.8527 50.346 60.0268 50.226 60.1716 50.0601C60.3173 49.8933 60.4309 49.6762 60.5134 49.4086C60.595 49.1401 60.6353 48.8112 60.6353 48.4226H60.6371Z" fill="#0069B4"/>
<path d="M65.0253 45.5151C65.4304 45.5151 65.7804 45.572 66.0754 45.6856C66.3705 45.7992 66.6115 45.9614 66.7993 46.1703C66.9872 46.3792 67.1283 46.6276 67.2209 46.9153C67.3125 47.203 67.3592 47.521 67.3592 47.8692C67.3592 48.0396 67.3372 48.178 67.2951 48.2843C67.2529 48.3906 67.1934 48.4749 67.1191 48.5344C67.0449 48.594 66.9597 48.6371 66.8635 48.6618C66.7682 48.6865 66.6665 48.6994 66.5602 48.6994H63.4923C63.4923 49.0338 63.5381 49.317 63.6307 49.5516C63.7232 49.7852 63.8469 49.9758 64 50.1206C64.1521 50.2663 64.3308 50.3707 64.5342 50.4349C64.7376 50.499 64.9566 50.5311 65.1921 50.5311C65.4276 50.5311 65.6585 50.5009 65.8867 50.4404C66.1149 50.3799 66.3036 50.3112 66.4539 50.2324C66.5391 50.1829 66.606 50.2003 66.6564 50.2855L66.88 50.7336C66.9295 50.8326 66.9075 50.904 66.8158 50.9462C66.5602 51.1029 66.2844 51.2073 65.9902 51.2605C65.6952 51.3136 65.4056 51.3402 65.1216 51.3402C64.7239 51.3402 64.3674 51.2834 64.0513 51.1698C63.7361 51.0562 63.4667 50.8821 63.2467 50.6484C63.0268 50.4147 62.8582 50.116 62.7419 49.7541C62.6246 49.3921 62.5659 48.9587 62.5659 48.4547C62.5659 47.9865 62.6282 47.5695 62.7519 47.2039C62.8756 46.8383 63.0488 46.5304 63.2687 46.2821C63.4887 46.0338 63.748 45.8432 64.0458 45.7121C64.3436 45.5811 64.6707 45.5151 65.0253 45.5151ZM66.485 47.9544C66.485 47.7345 66.4631 47.5228 66.4209 47.3212C66.3778 47.1187 66.3009 46.9419 66.1909 46.7888C66.08 46.6367 65.9307 46.5158 65.7419 46.4269C65.5531 46.338 65.3167 46.2931 65.0308 46.2931C64.7953 46.2931 64.5873 46.3398 64.405 46.4315C64.2236 46.524 64.0705 46.6468 63.9459 46.7989C63.8213 46.951 63.7232 47.1279 63.6518 47.3258C63.5803 47.5246 63.5372 47.7345 63.5235 47.9544H66.4841H66.485Z" fill="#0069B4"/>
<path d="M69.3978 51.1862C69.3666 51.211 69.3153 51.2238 69.2457 51.2238H68.7298C68.6592 51.2238 68.607 51.2119 68.5722 51.1862C68.5365 51.1615 68.519 51.1102 68.519 51.0323V45.8129C68.519 45.735 68.5365 45.6846 68.5722 45.6635C68.607 45.6425 68.6602 45.6315 68.7298 45.6315H69.2457C69.3162 45.6315 69.3666 45.6415 69.3978 45.6635C69.4299 45.6846 69.4454 45.735 69.4454 45.8129V47.8261H72.2045V45.8129C72.2045 45.735 72.2201 45.6846 72.2531 45.6635C72.2851 45.6425 72.3374 45.6315 72.4088 45.6315H72.9366C73.0154 45.6315 73.0677 45.6415 73.0924 45.6635C73.1172 45.6855 73.1309 45.735 73.1309 45.8129V51.0323C73.1309 51.1102 73.1181 51.1615 73.0924 51.1862C73.0677 51.211 73.0154 51.2238 72.9366 51.2238H72.4088C72.3365 51.2238 72.2851 51.2119 72.2531 51.1862C72.2201 51.1615 72.2045 51.1102 72.2045 51.0323V48.6141H69.4454V51.0323C69.4454 51.1102 69.4299 51.1615 69.3978 51.1862Z" fill="#0069B4"/>
<path d="M77.0922 46.0054C77.5109 46.0054 77.861 46.0778 78.1414 46.2235C78.4218 46.3692 78.6472 46.5643 78.8185 46.809C78.988 47.0536 79.1099 47.335 79.1805 47.6502C79.251 47.9663 79.2858 48.2944 79.2858 48.6352C79.2858 48.933 79.2455 49.2428 79.164 49.5616C79.0824 49.8814 78.9422 50.1719 78.7434 50.4349C78.5436 50.6979 78.2779 50.9141 77.9443 51.0846C77.6108 51.255 77.1884 51.3402 76.6771 51.3402C76.1658 51.3402 75.7543 51.2605 75.4409 51.1001C75.1285 50.9407 74.8884 50.7318 74.717 50.4715C74.5466 50.2131 74.433 49.9236 74.3762 49.6038C74.3194 49.284 74.29 48.9651 74.29 48.6453C74.29 47.9709 74.3148 47.3707 74.3643 46.8447C74.4147 46.3197 74.5164 45.8615 74.674 45.4712C74.8298 45.0808 75.0552 44.7518 75.3502 44.4861C75.6453 44.2195 76.0329 44.0124 76.5167 43.863C76.6578 43.8209 76.8145 43.7796 76.985 43.7402C77.1554 43.7017 77.3258 43.6642 77.4963 43.6284C77.6667 43.5936 77.8316 43.5615 77.9911 43.5322C78.1514 43.5038 78.2953 43.4754 78.4227 43.447C78.4868 43.4323 78.5326 43.4296 78.561 43.436C78.5894 43.4433 78.6105 43.4754 78.6252 43.5322L78.7205 43.9482C78.7626 44.0903 78.7241 44.1755 78.6032 44.2039C78.0561 44.3102 77.5916 44.4101 77.2076 44.5026C76.8667 44.5878 76.5845 44.6813 76.3609 44.7848C76.1374 44.8884 75.9578 45.0157 75.824 45.1688C75.6884 45.3209 75.5857 45.506 75.5152 45.7222C75.4437 45.9385 75.3869 46.2033 75.3447 46.5158C75.3521 46.5158 75.3585 46.5194 75.3658 46.5268C75.6361 46.3426 75.9275 46.2088 76.2391 46.1272C76.5515 46.0457 76.8356 46.0054 77.0912 46.0054H77.0922ZM76.7192 50.5742C77.039 50.5742 77.302 50.5155 77.5073 50.3982C77.7134 50.2809 77.8784 50.1307 78.003 49.9456C78.1267 49.7614 78.2137 49.5571 78.2641 49.3335C78.3136 49.1099 78.3384 48.8918 78.3384 48.6783C78.3384 48.4373 78.3164 48.2009 78.2742 47.97C78.2321 47.7391 78.1588 47.5356 78.0561 47.3579C77.9526 47.181 77.8124 47.0372 77.6355 46.9263C77.4578 46.8163 77.2305 46.7613 76.9538 46.7613C76.6908 46.7613 76.4068 46.8127 76.1016 46.9153C75.7965 47.0188 75.517 47.1654 75.2604 47.357C75.232 47.6841 75.2137 47.9443 75.2064 48.1395C75.199 48.3347 75.1963 48.5244 75.1963 48.7095C75.1963 48.9798 75.2201 49.2281 75.2705 49.4544C75.32 49.6817 75.4034 49.8796 75.5207 50.0455C75.638 50.2131 75.7937 50.3423 75.9889 50.434C76.185 50.5265 76.4278 50.5723 76.7183 50.5723L76.7192 50.5742Z" fill="#0069B4"/>
<path d="M82.7155 52.1401C82.5515 52.6294 82.3426 52.9703 82.087 53.1627C81.8313 53.3543 81.5042 53.4505 81.1065 53.4505C81.0066 53.4505 80.8829 53.4431 80.7335 53.4294C80.5842 53.4147 80.4211 53.3827 80.2442 53.3332C80.1306 53.3048 80.0884 53.248 80.1169 53.1627L80.2341 52.6936C80.2479 52.6368 80.2699 52.6038 80.2974 52.5928C80.3258 52.5818 80.3652 52.5836 80.4156 52.5983C80.5503 52.634 80.6511 52.6569 80.7189 52.6679C80.7867 52.6789 80.8664 52.6835 80.958 52.6835C81.1999 52.6835 81.3951 52.6359 81.5436 52.5396C81.6929 52.4434 81.813 52.2538 81.9055 51.9697C81.9128 51.9486 81.9293 51.8982 81.9587 51.8203C81.988 51.7424 82.0173 51.6591 82.0494 51.5702C82.0815 51.4813 82.1089 51.3979 82.1346 51.32C82.1603 51.2421 82.1749 51.1917 82.1822 51.1707H81.9807C81.8808 51.1707 81.7946 51.1551 81.7195 51.123C81.6453 51.0909 81.5793 50.9828 81.5225 50.7977L79.8814 45.7488C79.8603 45.6709 79.8914 45.6315 79.9776 45.6315H80.6905C80.7684 45.6315 80.8188 45.6672 80.8398 45.7378C80.8536 45.7872 80.8838 45.8853 80.9305 46.031C80.9764 46.1767 81.0313 46.3471 81.0955 46.5423C81.1596 46.7375 81.2265 46.9473 81.2971 47.1709C81.3676 47.3945 81.4354 47.6034 81.4996 47.7995C81.5637 47.9947 81.6187 48.1669 81.6645 48.3163C81.7113 48.4657 81.7406 48.561 81.7552 48.604L82.2986 50.4788H82.3618C82.3838 50.422 82.426 50.2947 82.4901 50.0949C82.5534 49.896 82.6193 49.6853 82.6871 49.4617C82.755 49.2381 82.8191 49.0356 82.8787 48.8542C82.9391 48.6728 82.973 48.5756 82.9804 48.561C82.9877 48.5463 83.0106 48.4812 83.05 48.364C83.0894 48.2467 83.138 48.0991 83.1994 47.9223C83.2589 47.7454 83.3249 47.5521 83.3964 47.3423C83.4679 47.1333 83.5366 46.9253 83.6044 46.7191C83.6722 46.513 83.7354 46.3233 83.7959 46.1501C83.8564 45.976 83.904 45.8395 83.9398 45.7396C83.9608 45.669 84.0112 45.6333 84.0891 45.6333H84.77C84.8561 45.6333 84.8882 45.6727 84.8662 45.7506L82.7146 52.141L82.7155 52.1401Z" fill="#0069B4"/>
<path d="M90.4596 48.4226C90.4596 48.8267 90.4083 49.2052 90.3057 49.5571C90.2021 49.9089 90.05 50.2177 89.8475 50.4835C89.6459 50.7492 89.3884 50.959 89.076 51.1121C88.7635 51.2642 88.4006 51.3411 87.9892 51.3411C87.7904 51.3411 87.5759 51.3301 87.345 51.3091C87.1132 51.2871 86.8676 51.2367 86.6046 51.1579V53.226C86.6046 53.2902 86.5918 53.3305 86.5671 53.3488C86.5423 53.3662 86.5011 53.3754 86.4443 53.3754H85.8477C85.7918 53.3754 85.7488 53.3671 85.7204 53.3488C85.692 53.3305 85.6782 53.2902 85.6782 53.226V46.0897C85.6782 45.998 85.7204 45.9376 85.8056 45.9092C86.1611 45.7525 86.5267 45.648 86.9033 45.5949C87.28 45.5417 87.6382 45.5151 87.9791 45.5151C88.4043 45.5151 88.7736 45.5875 89.0869 45.7332C89.3994 45.8789 89.656 46.0814 89.8594 46.3407C90.061 46.6001 90.2122 46.907 90.3121 47.2626C90.412 47.6172 90.4614 48.0048 90.4614 48.4236L90.4596 48.4226ZM89.4901 48.4226C89.4901 48.0341 89.4507 47.7052 89.3728 47.4367C89.294 47.1682 89.1822 46.9529 89.0375 46.7907C88.8918 46.6285 88.7177 46.5103 88.5152 46.436C88.3136 46.3618 88.0845 46.3243 87.8288 46.3243C87.6447 46.3243 87.4348 46.3417 87.2002 46.3774C86.9666 46.4122 86.7668 46.4617 86.6037 46.5258V50.3405C86.8731 50.4184 87.1059 50.4697 87.301 50.4944C87.4962 50.5192 87.6758 50.532 87.838 50.532C88.0799 50.532 88.3017 50.4944 88.5033 50.4202C88.7058 50.346 88.8799 50.226 89.0246 50.0601C89.1703 49.8933 89.284 49.6762 89.3664 49.4086C89.448 49.1401 89.4883 48.8112 89.4883 48.4226H89.4901Z" fill="#0069B4"/>
<path d="M92.7485 46.6165C92.6284 46.7338 92.567 46.9162 92.567 47.1636V51.0323C92.567 51.1102 92.5533 51.1615 92.5249 51.1862C92.4965 51.211 92.4433 51.2238 92.3654 51.2238H91.8541C91.7827 51.2238 91.7295 51.2119 91.6938 51.1862C91.658 51.1615 91.6406 51.1102 91.6406 51.0323V47.3148C91.6406 47.0948 91.6654 46.8813 91.7148 46.6752C91.7643 46.469 91.8514 46.2903 91.976 46.1373C92.1006 45.9843 92.2711 45.8624 92.4873 45.7698C92.7036 45.6773 92.9821 45.6315 93.3239 45.6315H95.5387C95.6166 45.6315 95.667 45.6489 95.688 45.6855C95.71 45.7213 95.7201 45.7726 95.7201 45.8367V46.2463C95.7201 46.3187 95.71 46.3682 95.688 46.3975C95.667 46.4259 95.6166 46.4406 95.5387 46.4406H93.3349C93.0646 46.4406 92.8694 46.4992 92.7494 46.6165H92.7485Z" fill="#0069B4"/>
<path d="M99.4699 51.0479C99.3636 50.9306 99.3096 50.7409 99.3096 50.4788C99.3096 50.2516 99.3838 49.9785 99.5331 49.6587C99.6825 49.3389 99.9171 49.0127 100.236 48.6792C100.506 48.3951 100.789 48.1449 101.089 47.9287C101.387 47.7124 101.65 47.5328 101.877 47.3908C102.111 47.2488 102.31 47.1177 102.474 46.9968C102.637 46.8768 102.771 46.7567 102.879 46.6403C102.985 46.5231 103.062 46.4048 103.108 46.2839C103.154 46.1629 103.177 46.0282 103.177 45.8789C103.177 45.538 103.041 45.2769 102.768 45.0963C102.494 44.9149 102.135 44.8242 101.687 44.8242C101.416 44.8242 101.138 44.8709 100.85 44.9625C100.562 45.0551 100.295 45.1935 100.045 45.3786C99.9455 45.4427 99.8676 45.439 99.8117 45.3676L99.4818 44.9314C99.4324 44.8462 99.4498 44.771 99.535 44.7069C99.8474 44.4732 100.194 44.2881 100.574 44.1534C100.953 44.0178 101.342 43.9509 101.74 43.9509C102.067 43.9509 102.373 43.9903 102.661 44.0682C102.949 44.1461 103.2 44.2616 103.417 44.4146C103.635 44.5676 103.807 44.76 103.934 44.9946C104.063 45.2292 104.127 45.5023 104.127 45.8147C104.127 46.0777 104.086 46.3141 104.008 46.5231C103.931 46.732 103.815 46.9281 103.663 47.1086C103.511 47.29 103.326 47.4623 103.11 47.6254C102.893 47.7885 102.647 47.9489 102.369 48.1046C102.163 48.2256 101.952 48.3658 101.736 48.5252C101.52 48.6856 101.315 48.8606 101.123 49.0521C100.931 49.2445 100.763 49.4516 100.618 49.6752C100.472 49.8988 100.364 50.1352 100.293 50.3835H103.978C104.049 50.3835 104.094 50.3982 104.111 50.4266C104.129 50.455 104.138 50.5008 104.138 50.565V51.0552C104.138 51.112 104.129 51.1542 104.111 51.1835C104.094 51.2119 104.049 51.2256 103.978 51.2256H100.069C99.7778 51.2256 99.5799 51.167 99.4727 51.0497L99.4699 51.0479Z" fill="#0069B4"/>
<path d="M110.908 47.6346C110.908 48.1881 110.853 48.6939 110.743 49.1521C110.633 49.6102 110.463 50.0006 110.233 50.3231C110.003 50.6466 109.712 50.8967 109.362 51.0745C109.011 51.2514 108.59 51.3402 108.102 51.3402C107.613 51.3402 107.225 51.2532 106.875 51.0791C106.524 50.905 106.233 50.6585 106.002 50.3387C105.771 50.0189 105.6 49.6322 105.486 49.1777C105.373 48.7232 105.317 48.2156 105.317 47.6548C105.317 47.094 105.373 46.5863 105.486 46.1318C105.6 45.6774 105.773 45.2888 106.008 44.9654C106.241 44.6419 106.534 44.3917 106.885 44.214C107.236 44.0371 107.648 43.9482 108.124 43.9482C108.599 43.9482 109.045 44.0353 109.398 44.2094C109.753 44.3835 110.041 44.63 110.265 44.9498C110.489 45.2696 110.652 45.6563 110.754 46.1108C110.858 46.5653 110.908 47.0729 110.908 47.6337V47.6346ZM109.982 47.6557C109.982 47.3011 109.953 46.9492 109.897 46.601C109.84 46.2528 109.74 45.9403 109.599 45.6636C109.457 45.3869 109.265 45.1633 109.023 44.9929C108.782 44.8224 108.476 44.7372 108.107 44.7372C107.738 44.7372 107.447 44.8224 107.213 44.9929C106.979 45.1633 106.79 45.386 106.648 45.6581C106.506 45.9312 106.406 46.2409 106.351 46.5845C106.294 46.9291 106.265 47.2791 106.265 47.6337C106.265 47.9883 106.291 48.3402 106.345 48.6884C106.398 49.0366 106.496 49.3491 106.638 49.6258C106.779 49.9025 106.969 50.1279 107.207 50.302C107.445 50.4761 107.752 50.5632 108.129 50.5632C108.506 50.5632 108.792 50.4761 109.029 50.302C109.267 50.1279 109.457 49.9025 109.599 49.6258C109.74 49.3491 109.84 49.0384 109.897 48.6939C109.953 48.3494 109.982 48.0039 109.982 47.6557Z" fill="#0069B4"/>
<path d="M112.038 51.0479C111.932 50.9306 111.878 50.7409 111.878 50.4788C111.878 50.2516 111.952 49.9785 112.102 49.6587C112.251 49.3389 112.485 49.0127 112.804 48.6792C113.075 48.3951 113.358 48.1449 113.657 47.9287C113.955 47.7124 114.218 47.5328 114.445 47.3908C114.679 47.2488 114.878 47.1177 115.042 46.9968C115.205 46.8768 115.34 46.7567 115.447 46.6403C115.553 46.5231 115.63 46.4048 115.676 46.2839C115.722 46.1629 115.746 46.0282 115.746 45.8789C115.746 45.538 115.609 45.2769 115.336 45.0963C115.062 44.9149 114.703 44.8242 114.255 44.8242C113.985 44.8242 113.706 44.8709 113.418 44.9625C113.131 45.0551 112.863 45.1935 112.614 45.3786C112.514 45.4427 112.436 45.439 112.38 45.3676L112.05 44.9314C112.001 44.8462 112.018 44.771 112.103 44.7069C112.416 44.4732 112.762 44.2881 113.142 44.1534C113.522 44.0178 113.91 43.9509 114.308 43.9509C114.635 43.9509 114.941 43.9903 115.23 44.0682C115.518 44.1461 115.769 44.2616 115.986 44.4146C116.203 44.5676 116.375 44.76 116.503 44.9946C116.631 45.2292 116.695 45.5023 116.695 45.8147C116.695 46.0777 116.655 46.3141 116.577 46.5231C116.499 46.732 116.384 46.9281 116.231 47.1086C116.079 47.29 115.894 47.4623 115.678 47.6254C115.462 47.7885 115.215 47.9489 114.938 48.1046C114.731 48.2256 114.521 48.3658 114.304 48.5252C114.088 48.6856 113.884 48.8606 113.691 49.0521C113.5 49.2445 113.331 49.4516 113.186 49.6752C113.041 49.8988 112.933 50.1352 112.861 50.3835H116.547C116.617 50.3835 116.662 50.3982 116.679 50.4266C116.698 50.455 116.706 50.5008 116.706 50.565V51.0552C116.706 51.112 116.698 51.1542 116.679 51.1835C116.662 51.2119 116.617 51.2256 116.547 51.2256H112.638C112.346 51.2256 112.148 51.167 112.041 51.0497L112.038 51.0479Z" fill="#0069B4"/>
<path d="M123.263 48.9018C123.263 49.2857 123.2 49.6284 123.074 49.9299C122.948 50.2323 122.765 50.4889 122.525 50.7024C122.286 50.915 121.998 51.079 121.66 51.1917C121.323 51.3053 120.948 51.3621 120.537 51.3621C120.09 51.3621 119.651 51.3145 119.221 51.2183C118.791 51.1221 118.417 50.9397 118.098 50.6694C118.034 50.6199 118.026 50.5558 118.076 50.4779L118.385 50.0087C118.449 49.9235 118.538 49.9171 118.651 49.9876C118.914 50.1654 119.204 50.2946 119.519 50.3762C119.835 50.4577 120.164 50.4989 120.505 50.4989C121.058 50.4989 121.503 50.3624 121.836 50.0894C122.17 49.8163 122.337 49.4342 122.337 48.9439C122.337 48.6956 122.293 48.484 122.204 48.3099C122.115 48.1357 121.996 47.9955 121.846 47.8893C121.697 47.783 121.528 47.7051 121.341 47.6547C121.153 47.6052 120.959 47.5805 120.761 47.5805C120.562 47.5805 120.385 47.5914 120.233 47.6125C120.081 47.6336 119.938 47.6638 119.808 47.7032C119.676 47.7426 119.546 47.7885 119.418 47.8416C119.291 47.8948 119.152 47.9534 119.003 48.0175C118.925 48.0533 118.854 48.0689 118.79 48.0652C118.726 48.0615 118.655 48.0459 118.577 48.0175L118.417 47.9534C118.339 47.9177 118.275 47.8663 118.225 47.7995C118.176 47.7316 118.157 47.6309 118.172 47.4952L118.438 44.694C118.459 44.4668 118.533 44.3055 118.661 44.2093C118.789 44.1131 118.927 44.0654 119.076 44.0654H122.61C122.68 44.0654 122.724 44.0801 122.742 44.1076C122.759 44.136 122.767 44.1791 122.767 44.2359V44.7261C122.767 44.7902 122.757 44.8361 122.736 44.8645C122.715 44.8929 122.673 44.9066 122.61 44.9066H119.343L119.109 47.0792C119.407 46.9445 119.711 46.8556 120.02 46.8135C120.329 46.7704 120.615 46.7493 120.878 46.7493C121.211 46.7493 121.524 46.7988 121.815 46.8987C122.107 46.9986 122.36 47.1425 122.574 47.3303C122.788 47.5191 122.957 47.7463 123.08 48.012C123.202 48.2787 123.264 48.5747 123.264 48.9018H123.263Z" fill="#0069B4"/>
</svg>
